<svg xmlns="http://www.w3.org/2000/svg" xmlns:xlink="http://www.w3.org/1999/xlink" width="500" zoomAndPan="magnify" viewBox="0 0 375 374.999991" height="500" preserveAspectRatio="xMidYMid meet" version="1.0"><defs><clipPath id="b8bf1f4517"><path d="M 37.5 114 L 330 114 L 330 307.761719 L 37.5 307.761719 Z M 37.5 114 " clip-rule="nonzero"/></clipPath></defs><rect x="-37.5" width="450" fill="#ffffff" y="-37.499999" height="449.999989" fill-opacity="1"/><g clip-path="url(#b8bf1f4517)"><path fill="#5271ff" d="M 306.894531 118.0625 C 303.6875 116.464844 299.671875 115.660156 299.671875 115.660156 C 298.25 115.351562 295.035156 114.882812 292.726562 114.882812 C 275.84375 114.882812 258.035156 129.863281 248.410156 152.164062 C 242.855469 165.035156 240.84375 178.597656 242.742188 190.355469 C 244.671875 202.300781 250.425781 211.710938 258.949219 216.039062 L 250.085938 235.703125 C 248.222656 236.246094 246.394531 236.980469 244.691406 238.105469 L 210.605469 260.667969 C 210.605469 260.667969 161.738281 187.09375 161.613281 186.929688 C 155.859375 176.613281 137.535156 166.367188 119.925781 171.3125 C 78.476562 183.964844 41.929688 261.644531 37.554688 307.539062 L 163.234375 307.574219 L 165.550781 276.90625 L 129.070312 221.257812 C 128.015625 219.652344 128.464844 217.496094 130.070312 216.441406 C 131.675781 215.382812 133.828125 215.839844 134.886719 217.441406 L 189.4375 299.894531 C 193.269531 304.929688 199.109375 307.671875 205.082031 307.671875 C 208.820312 307.671875 212.59375 306.609375 215.941406 304.390625 L 266.441406 270.957031 C 275.511719 264.953125 278 252.726562 271.988281 243.65625 C 269.621094 240.078125 266.269531 237.570312 262.546875 236.15625 L 269.382812 221.003906 C 272.488281 222.007812 275.675781 222.515625 278.894531 222.515625 C 285.777344 222.515625 292.78125 220.226562 299.402344 215.726562 C 308.957031 209.230469 317.414062 198.25 323.210938 184.816406 C 335.386719 156.585938 327.683594 128.421875 306.894531 118.0625 Z M 305.78125 176.917969 C 297.953125 195.0625 283.136719 208.222656 270.550781 208.222656 C 268.292969 208.222656 266.152344 207.792969 264.175781 206.941406 C 258.125 204.335938 253.976562 197.882812 252.5 188.773438 C 250.898438 178.851562 252.671875 167.242188 257.484375 156.074219 C 265.316406 137.933594 280.132812 124.765625 292.726562 124.765625 C 294.976562 124.765625 297.121094 125.195312 299.082031 126.039062 C 312.171875 131.691406 315.238281 154.992188 305.78125 176.917969 Z M 305.78125 176.917969 " fill-opacity="1" fill-rule="nonzero"/></g><path fill="#5271ff" d="M 167.046875 177.011719 C 186.886719 188.765625 212.523438 182.195312 224.269531 162.363281 C 236.035156 142.503906 229.464844 116.871094 209.628906 105.121094 C 189.757812 93.347656 164.144531 99.921875 152.378906 119.78125 C 140.621094 139.617188 147.175781 165.242188 167.046875 177.011719 Z M 167.046875 177.011719 " fill-opacity="1" fill-rule="nonzero"/><path fill="#5271ff" d="M 281.066406 147.714844 C 284.703125 144.183594 288.433594 142.683594 291.292969 143.601562 C 292.964844 144.125 294.375 145.453125 295.484375 147.542969 C 296.289062 149.046875 298.152344 149.628906 299.667969 148.820312 C 301.179688 148.019531 301.746094 146.144531 300.949219 144.636719 C 299.078125 141.113281 296.386719 138.714844 293.164062 137.695312 C 287.984375 136.050781 282.15625 138.03125 276.757812 143.269531 C 271.851562 148.03125 267.746094 155.058594 265.203125 163.0625 C 263.644531 167.996094 262.75 173.097656 262.621094 177.816406 C 262.574219 179.523438 263.925781 180.945312 265.632812 180.992188 C 265.660156 180.992188 265.691406 180.992188 265.714844 180.992188 C 267.390625 180.992188 268.761719 179.660156 268.804688 177.980469 C 268.917969 173.832031 269.710938 169.324219 271.105469 164.933594 C 273.34375 157.890625 276.878906 151.777344 281.066406 147.714844 Z M 281.066406 147.714844 " fill-opacity="1" fill-rule="nonzero"/></svg>